<svg xmlns="http://www.w3.org/2000/svg" viewBox="0 0 512 512">
    <defs>
        <linearGradient id="a" x1="0%" x2="100%" y1="0%" y2="100%">
            <stop offset="0%" style="stop-color:#1a1a2e;stop-opacity:1"/>
            <stop offset="100%" style="stop-color:#0f3460;stop-opacity:1"/>
        </linearGradient>
        <linearGradient id="c" x1="0%" x2="100%" y1="0%" y2="100%">
            <stop offset="0%" style="stop-color:#4caf50;stop-opacity:1"/>
            <stop offset="100%" style="stop-color:#81c784;stop-opacity:1"/>
        </linearGradient>
        <radialGradient id="b" cx="50%" cy="50%" r="50%">
            <stop offset="0%" style="stop-color:#e94560;stop-opacity:.8"/>
            <stop offset="100%" style="stop-color:#e94560;stop-opacity:0"/>
        </radialGradient>
    </defs>
    <rect width="512" height="512" fill="url(#a)" rx="80"/>
    <g stroke="#fff" opacity=".15">
        <path d="M128 0v512M256 0v512M384 0v512M0 128h512M0 256h512M0 384h512"/>
    </g>
    <circle cx="256" cy="256" r="120" fill="url(#b)"/>
    <circle cx="128" cy="128" r="20" fill="url(#c)" stroke="#fff" stroke-width="3"/>
    <circle cx="256" cy="128" r="20" fill="url(#c)" stroke="#fff" stroke-width="3"/>
    <circle cx="384" cy="128" r="20" fill="url(#c)" stroke="#fff" stroke-width="3"/>
    <circle cx="128" cy="256" r="20" fill="url(#c)" stroke="#fff" stroke-width="3"/>
    <circle cx="384" cy="256" r="20" fill="url(#c)" stroke="#fff" stroke-width="3"/>
    <circle cx="128" cy="384" r="20" fill="url(#c)" stroke="#fff" stroke-width="3"/>
    <circle cx="256" cy="384" r="20" fill="url(#c)" stroke="#fff" stroke-width="3"/>
    <circle cx="384" cy="384" r="20" fill="url(#c)" stroke="#fff" stroke-width="3"/>
    <circle cx="256" cy="256" r="35" fill="#e94560" stroke="#fff" stroke-width="4">
        <animate attributeName="r" dur="2s" repeatCount="indefinite" values="35;40;35"/>
    </circle>
    <g stroke="#4caf50" stroke-width="2" opacity=".4">
        <path d="M128 128h128M256 128h128M128 128v128M128 256v128M384 128v128M384 256v128M128 384h128M256 384h128"/>
    </g>
    <g stroke="#e94560" stroke-width="3" opacity=".6">
        <path d="M256 128v128M128 256h128M256 256h128M256 256v128"/>
    </g>
</svg>